<svg xmlns="http://www.w3.org/2000/svg" viewBox="0 0 1280 1056" width="1280" height="1056" font-family="Georgia, 'Times New Roman', serif" role="img" aria-label="Карта расселения народов — Быт 10">
<defs>

    <linearGradient id="paperGrad" x1="0" y1="0" x2="0" y2="1">
      <stop offset="0%" stop-color="#f6eedb"/><stop offset="55%" stop-color="#f0e5cb"/>
      <stop offset="100%" stop-color="#e6d8b8"/></linearGradient>
    <linearGradient id="goldGrad" x1="0" y1="0" x2="0" y2="1">
      <stop offset="0%" stop-color="#e6c877"/><stop offset="50%" stop-color="#b8933f"/>
      <stop offset="100%" stop-color="#a07d33"/></linearGradient>
    <linearGradient id="cardGrad" x1="0" y1="0" x2="0" y2="1">
      <stop offset="0%" stop-color="#fdf9ef"/><stop offset="100%" stop-color="#f6eeda"/></linearGradient>
    <linearGradient id="megaGrad" x1="0" y1="0" x2="0" y2="1">
      <stop offset="0%" stop-color="#f6efdd"/><stop offset="100%" stop-color="#efe4cb"/></linearGradient>
    <filter id="paperTex" x="-5%" y="-5%" width="110%" height="110%">
      <feTurbulence type="fractalNoise" baseFrequency="0.011 0.017" numOctaves="3" seed="7" stitchTiles="stitch" result="mot"/>
      <feColorMatrix in="mot" type="matrix" values="0 0 0 0 0.42  0 0 0 0 0.32  0 0 0 0 0.15  0 0 0 0.06 0"/></filter>
    <filter id="grain" x="0" y="0" width="100%" height="100%">
      <feTurbulence type="fractalNoise" baseFrequency="0.9" numOctaves="2" seed="11" stitchTiles="stitch" result="g"/>
      <feColorMatrix in="g" type="matrix" values="0 0 0 0 0  0 0 0 0 0  0 0 0 0 0  0 0 0 0.035 0"/></filter>
    <filter id="cardShadow" x="-30%" y="-30%" width="160%" height="180%">
      <feDropShadow dx="0" dy="2.2" stdDeviation="3.4" flood-color="#4a3616" flood-opacity="0.26"/></filter>
    <filter id="goldSoft" x="-60%" y="-60%" width="220%" height="220%"><feGaussianBlur stdDeviation="3.2"/></filter>
    <filter id="desat"><feColorMatrix type="saturate" values="0.15"/></filter>
<filter id="regionBlur" x="-40%" y="-40%" width="180%" height="180%"><feGaussianBlur stdDeviation="24"/></filter>
<clipPath id="mapField"><rect x="40" y="130" width="1200" height="860" rx="10"/></clipPath>
<symbol id="ic-person" viewBox="0 0 24 24" fill="none" stroke="currentColor" stroke-width="1.5" stroke-linecap="round" stroke-linejoin="round"><circle cx="12" cy="8" r="3.4"/><path d="M5.5 19c0-3.6 2.9-6 6.5-6s6.5 2.4 6.5 6"/></symbol>
<symbol id="ic-people" viewBox="0 0 24 24" fill="none" stroke="currentColor" stroke-width="1.5" stroke-linecap="round" stroke-linejoin="round"><circle cx="8.5" cy="8.6" r="2.7"/><circle cx="15.8" cy="9.2" r="2.3"/><path d="M3.5 18.5c0-2.9 2.2-4.9 5-4.9 1.4 0 2.6.5 3.5 1.3"/><path d="M12.6 18.5c.2-2.4 2-4 4.2-4 2.3 0 4.1 1.8 4.1 4.4"/></symbol>
<symbol id="ic-ark" viewBox="0 0 24 24" fill="none" stroke="currentColor" stroke-width="1.5" stroke-linecap="round" stroke-linejoin="round"><path d="M3 12.5c1.6 3 5 4.7 9 4.7s7.4-1.7 9-4.7"/><path d="M6.2 12.4V8.8h11.6v3.6"/><path d="M9.4 8.8V6.4h5.2v2.4"/><path d="M12 6.4V4.6"/></symbol>
<symbol id="ic-tent" viewBox="0 0 24 24" fill="none" stroke="currentColor" stroke-width="1.5" stroke-linecap="round" stroke-linejoin="round"><path d="M3 18.5 12 4l9 14.5"/><path d="M12 4v14.5"/><path d="M9.6 18.5c.3-2 1.1-3.4 2.4-3.4s2.1 1.4 2.4 3.4"/></symbol>
<symbol id="ic-ladder" viewBox="0 0 24 24" fill="none" stroke="currentColor" stroke-width="1.5" stroke-linecap="round" stroke-linejoin="round"><path d="M8 3.5 6.5 20.5M16 3.5 17.5 20.5"/><path d="M7.3 7.5h9.1M7.1 11.2h9.5M6.9 14.9h9.9"/></symbol>
<symbol id="ic-lion" viewBox="0 0 24 24" fill="none" stroke="currentColor" stroke-width="1.5" stroke-linecap="round" stroke-linejoin="round"><path d="M16.62 10.09 Q19 12 16.62 13.91 Q16.95 16.95 13.91 16.62 Q12 19 10.09 16.62 Q7.05 16.95 7.38 13.91 Q5 12 7.38 10.09 Q7.05 7.05 10.09 7.38 Q12 5 13.91 7.38 Q16.95 7.05 16.62 10.09 Z"/><circle cx="12" cy="12.3" r="3.5"/><circle cx="10.7" cy="11.7" r=".55" fill="currentColor" stroke="none"/><circle cx="13.3" cy="11.7" r=".55" fill="currentColor" stroke="none"/><path d="M11.2 13.1h1.6l-.8 1z" fill="currentColor" stroke="none"/><path d="M12 14.1v.7M10.8 15c.7.5 1.7.5 2.4 0"/></symbol>
<symbol id="ic-crown" viewBox="0 0 24 24" fill="none" stroke="currentColor" stroke-width="1.5" stroke-linecap="round" stroke-linejoin="round"><path d="M4 16.5 3 7l5 4 4-6.5 4 6.5 5-4-1 9.5z"/><path d="M4 16.5h16"/></symbol>
<symbol id="ic-cross" viewBox="0 0 24 24" fill="none" stroke="currentColor" stroke-width="1.5" stroke-linecap="round" stroke-linejoin="round"><path d="M12 3.2v17.6M6.6 9.2h10.8"/></symbol>
<symbol id="ic-tree" viewBox="0 0 24 24" fill="none" stroke="currentColor" stroke-width="1.5" stroke-linecap="round" stroke-linejoin="round"><path d="M12 21v-6.4"/><path d="M9.2 15c-2.3 0-4-1.6-4-3.7 0-1.4.8-2.6 2-3.2-.1-.3-.1-.5-.1-.8 0-1.9 1.5-3.4 3.4-3.4 1.2 0 2.3.6 2.9 1.6.5-.3 1.1-.5 1.7-.5 1.9 0 3.4 1.5 3.4 3.4 0 .3 0 .5-.1.8 1.1.5 1.9 1.7 1.9 3.1 0 2.1-1.7 3.7-4 3.7z"/><path d="M12 15.2 9.9 13M12 12.6l2-2"/></symbol>
<symbol id="ic-scroll" viewBox="0 0 24 24" fill="none" stroke="currentColor" stroke-width="1.5" stroke-linecap="round" stroke-linejoin="round"><path d="M7 5.5h10.5v11a2.5 2.5 0 0 1-2.5 2.5H6.5"/><path d="M9.5 9h5.5M9.5 12h5.5"/><path d="M7 5.5A2 2 0 0 0 5 7.5 2 2 0 0 0 7 9.5M6.5 19a2.2 2.2 0 0 0 2.2-2.2V7.5"/></symbol>
<symbol id="ic-book" viewBox="0 0 24 24" fill="none" stroke="currentColor" stroke-width="1.5" stroke-linecap="round" stroke-linejoin="round"><path d="M12 6.2v13"/><path d="M12 6.2C10.4 5 8.4 4.6 5.5 4.6v12.6c2.9 0 4.9.4 6.5 1.6 1.6-1.2 3.6-1.6 6.5-1.6V4.6c-2.9 0-4.9.4-6.5 1.6z"/></symbol>
<symbol id="ic-temple" viewBox="0 0 24 24" fill="none" stroke="currentColor" stroke-width="1.5" stroke-linecap="round" stroke-linejoin="round"><path d="M3.5 8 12 3.5 20.5 8z"/><path d="M4.5 8v8.5M9 8v8.5M15 8v8.5M19.5 8v8.5"/><path d="M3 20h18M3.5 16.5h17"/></symbol>
<symbol id="ic-menorah" viewBox="0 0 24 24" fill="none" stroke="currentColor" stroke-width="1.5" stroke-linecap="round" stroke-linejoin="round"><path d="M12 16.5V7"/><path d="M12 12.4c0-2.1-1-3.4-2.9-3.4M9.1 9V7"/><path d="M12 13.1c0-2.9-1.8-4.6-4.4-4.6M7.6 8.5V7"/><path d="M12 13.8c0-3.7-2.6-5.8-5.9-5.8M6.1 8V7"/><path d="M12 12.4c0-2.1 1-3.4 2.9-3.4M14.9 9V7"/><path d="M12 13.1c0-2.9 1.8-4.6 4.4-4.6M16.4 8.5V7"/><path d="M12 13.8c0-3.7 2.6-5.8 5.9-5.8M17.9 8V7"/><path d="M9.5 16.5h5M10.7 18.6h2.6M12 16.5v2.1"/></symbol>
<symbol id="ic-camel" viewBox="0 0 24 24" fill="none" stroke="currentColor" stroke-width="1.5" stroke-linecap="round" stroke-linejoin="round"><path d="M3.6 15c-.4-1.9.4-3.4 1.6-3.4.8 0 1.4.7 1.7 1.9.5-2.3 1.5-3.8 2.8-3.8 1.1 0 1.9 1.2 2.4 3.1"/><path d="M12.1 12.8c.4-2.3 1.4-3.9 2.8-3.9.8 0 1.4.5 1.8 1.2l.8 1.6c.3.6-.1 1.3-.6 1.6"/><path d="M5.6 15.2 6 19M8.4 14.1l.2 5.3M12.2 13.1l.2 6.3M15.4 14.6l.2 4.8"/></symbol>
<symbol id="ic-ram" viewBox="0 0 24 24" fill="none" stroke="currentColor" stroke-width="1.5" stroke-linecap="round" stroke-linejoin="round"><path d="M12 10.4c-1.5 0-2.6 1.2-2.6 2.9 0 2 1.2 3.5 2.6 3.5s2.6-1.5 2.6-3.5c0-1.7-1.1-2.9-2.6-2.9z"/><circle cx="11" cy="12.9" r=".5" fill="currentColor" stroke="none"/><circle cx="13" cy="12.9" r=".5" fill="currentColor" stroke="none"/><path d="M12 14.5v.9M11.2 15.7c.5.4 1.1.4 1.6 0"/><path d="M9.5 11C9 8.8 7.2 7.4 5.4 8.1 3.7 8.7 3.1 10.7 4 12.3c.7 1.3 2.2 1.7 3.2.9.8-.65.9-1.9.1-2.6-.6-.55-1.6-.35-1.9.45"/><path d="M14.5 11c.5-2.2 2.3-3.6 4.1-2.9 1.7.6 2.3 2.6 1.4 4.2-.7 1.3-2.2 1.7-3.2.9-.8-.65-.9-1.9-.1-2.6.6-.55 1.6-.35 1.9.45"/></symbol>
<symbol id="ic-mountain" viewBox="0 0 24 24" fill="none" stroke="currentColor" stroke-width="1.5" stroke-linecap="round" stroke-linejoin="round"><path d="M2.5 18.5 9 8l3.2 4.8L15 8.5l6.5 10z"/><path d="M7.4 10.4 9 8l1.6 2.4"/></symbol>
<symbol id="ic-gate" viewBox="0 0 24 24" fill="none" stroke="currentColor" stroke-width="1.5" stroke-linecap="round" stroke-linejoin="round"><path d="M5 20V9a7 7 0 0 1 14 0v11"/><path d="M5 20h14"/><path d="M9 20v-7a3 3 0 0 1 6 0v7"/></symbol>
<symbol id="ic-tribes" viewBox="0 0 24 24" fill="none" stroke="currentColor" stroke-width="1.5" stroke-linecap="round" stroke-linejoin="round"><path d="M6 4h12v13l-3-2-3 2-3-2-3 2z"/><path d="M9 8h6M9 11h6"/></symbol>
<symbol id="ic-globe" viewBox="0 0 24 24" fill="none" stroke="currentColor" stroke-width="1.5" stroke-linecap="round" stroke-linejoin="round"><circle cx="12" cy="12" r="8.2"/><path d="M3.8 12h16.4M12 3.8v16.4"/><path d="M12 3.8c2.6 2.3 4 5.2 4 8.2s-1.4 5.9-4 8.2c-2.6-2.3-4-5.2-4-8.2s1.4-5.9 4-8.2z"/></symbol>
</defs>
<rect x="0" y="0" width="1280" height="1056" fill="url(#paperGrad)"/>
<rect x="0" y="0" width="1280" height="1056" filter="url(#paperTex)" opacity="0.5"/>
<rect x="0" y="0" width="1280" height="1056" filter="url(#grain)" opacity="0.6"/>
<text x="640" y="64" text-anchor="middle" font-size="38" fill="#3c3120" font-weight="bold" letter-spacing="0.5">Карта расселения народов</text>
<g stroke="#b8933f" stroke-width="1" opacity="0.7">
    <line x1="472" y1="80" x2="626" y2="80"/>
    <line x1="654" y1="80" x2="808" y2="80"/>
    <path d="M640 75 l6 5 -6 5 -6 -5z" fill="url(#goldGrad)" stroke="none"/></g>
<text x="640" y="102" text-anchor="middle" font-size="16" fill="#b8933f" font-style="italic" letter-spacing="1">Иафет — север · Хам — юг · Сим — восток · Быт 10:5,32</text>
<g clip-path="url(#mapField)">
<g transform="translate(40 130)">
<ellipse cx="520" cy="315" rx="270" ry="50" fill="#3f8a9a" opacity="0.11" filter="url(#regionBlur)"/>
<ellipse cx="298" cy="306" rx="70" ry="44" fill="#3f8a9a" opacity="0.11" filter="url(#regionBlur)"/>
<ellipse cx="640" cy="100" rx="210" ry="48" fill="#3f8a9a" opacity="0.11" filter="url(#regionBlur)"/>
<ellipse cx="555" cy="672" rx="225" ry="115" fill="#a0533f" opacity="0.11" filter="url(#regionBlur)"/>
<ellipse cx="733" cy="460" rx="48" ry="72" fill="#a0533f" opacity="0.11" filter="url(#regionBlur)"/>
<ellipse cx="688" cy="782" rx="118" ry="48" fill="#a0533f" opacity="0.11" filter="url(#regionBlur)"/>
<ellipse cx="875" cy="480" rx="175" ry="110" fill="#c19a41" opacity="0.11" filter="url(#regionBlur)"/>
<ellipse cx="885" cy="715" rx="195" ry="95" fill="#c19a41" opacity="0.11" filter="url(#regionBlur)"/>
<path d="M 60 520
  C 150 514, 240 516, 330 522 C 380 526, 430 520, 470 526
  C 530 534, 590 538, 636 532
  C 645 528, 649 522, 656 522 C 663 522, 667 528, 673 528
  C 689 524, 700 498, 702 462 C 704 428, 702 396, 695 372
  C 678 352, 640 346, 596 344 C 560 342, 524 344, 492 342 C 464 340, 436 336, 412 338
  C 396 340, 386 332, 383 316 C 380 296, 373 281, 360 275
  C 344 269, 330 275, 325 292 C 320 310, 312 326, 298 333
  C 262 340, 210 342, 160 340 C 122 339, 88 337, 60 334 Z" fill="#8fb2b8" fill-opacity="0.16" stroke="none"/>
<path d="M 60 520
  C 150 514, 240 516, 330 522 C 380 526, 430 520, 470 526
  C 530 534, 590 538, 636 532
  C 645 528, 649 522, 656 522 C 663 522, 667 528, 673 528
  C 689 524, 700 498, 702 462 C 704 428, 702 396, 695 372
  C 678 352, 640 346, 596 344 C 560 342, 524 344, 492 342 C 464 340, 436 336, 412 338
  C 396 340, 386 332, 383 316 C 380 296, 373 281, 360 275
  C 344 269, 330 275, 325 292 C 320 310, 312 326, 298 333
  C 262 340, 210 342, 160 340 C 122 339, 88 337, 60 334 Z" fill="none" stroke="#6e5c3d" stroke-width="3.6" opacity="0.09"/>
<path d="M 60 520
  C 150 514, 240 516, 330 522 C 380 526, 430 520, 470 526
  C 530 534, 590 538, 636 532
  C 645 528, 649 522, 656 522 C 663 522, 667 528, 673 528
  C 689 524, 700 498, 702 462 C 704 428, 702 396, 695 372
  C 678 352, 640 346, 596 344 C 560 342, 524 344, 492 342 C 464 340, 436 336, 412 338
  C 396 340, 386 332, 383 316 C 380 296, 373 281, 360 275
  C 344 269, 330 275, 325 292 C 320 310, 312 326, 298 333
  C 262 340, 210 342, 160 340 C 122 339, 88 337, 60 334 Z" fill="none" stroke="#6e5c3d" stroke-width="1.5" opacity="0.5"/>
<path d="M 372 212 C 415 192, 505 183, 580 192 C 645 199, 690 216, 688 238
  C 685 262, 625 276, 550 276 C 480 276, 410 264, 388 240 C 379 230, 370 222, 372 212 Z" fill="#8fb2b8" fill-opacity="0.16" stroke="none"/>
<path d="M 372 212 C 415 192, 505 183, 580 192 C 645 199, 690 216, 688 238
  C 685 262, 625 276, 550 276 C 480 276, 410 264, 388 240 C 379 230, 370 222, 372 212 Z" fill="none" stroke="#6e5c3d" stroke-width="3.6" opacity="0.09"/>
<path d="M 372 212 C 415 192, 505 183, 580 192 C 645 199, 690 216, 688 238
  C 685 262, 625 276, 550 276 C 480 276, 410 264, 388 240 C 379 230, 370 222, 372 212 Z" fill="none" stroke="#6e5c3d" stroke-width="1.5" opacity="0.5"/>
<path d="M 950 150 C 972 143, 990 152, 995 176 C 1000 208, 995 246, 981 268
  C 968 288, 949 283, 942 258 C 935 232, 934 194, 939 170 C 941 158, 944 152, 950 150 Z" fill="#8fb2b8" fill-opacity="0.16" stroke="none"/>
<path d="M 950 150 C 972 143, 990 152, 995 176 C 1000 208, 995 246, 981 268
  C 968 288, 949 283, 942 258 C 935 232, 934 194, 939 170 C 941 158, 944 152, 950 150 Z" fill="none" stroke="#6e5c3d" stroke-width="3.6" opacity="0.09"/>
<path d="M 950 150 C 972 143, 990 152, 995 176 C 1000 208, 995 246, 981 268
  C 968 288, 949 283, 942 258 C 935 232, 934 194, 939 170 C 941 158, 944 152, 950 150 Z" fill="none" stroke="#6e5c3d" stroke-width="1.5" opacity="0.5"/>
<path d="M 702 592 C 708 610, 718 636, 732 666 C 751 706, 775 748, 798 784
  L 820 770 C 798 738, 777 702, 759 666 C 742 632, 726 604, 712 586 Z" fill="#8fb2b8" fill-opacity="0.16" stroke="none"/>
<path d="M 702 592 C 708 610, 718 636, 732 666 C 751 706, 775 748, 798 784
  L 820 770 C 798 738, 777 702, 759 666 C 742 632, 726 604, 712 586 Z" fill="none" stroke="#6e5c3d" stroke-width="3.6" opacity="0.09"/>
<path d="M 702 592 C 708 610, 718 636, 732 666 C 751 706, 775 748, 798 784
  L 820 770 C 798 738, 777 702, 759 666 C 742 632, 726 604, 712 586 Z" fill="none" stroke="#6e5c3d" stroke-width="1.5" opacity="0.5"/>
<path d="M 940 660 C 966 672, 1000 692, 1032 714 C 1060 733, 1080 750, 1088 764
  C 1094 776, 1086 784, 1068 776 C 1036 762, 1000 738, 972 714 C 952 696, 936 676, 940 660 Z" fill="#8fb2b8" fill-opacity="0.16" stroke="none"/>
<path d="M 940 660 C 966 672, 1000 692, 1032 714 C 1060 733, 1080 750, 1088 764
  C 1094 776, 1086 784, 1068 776 C 1036 762, 1000 738, 972 714 C 952 696, 936 676, 940 660 Z" fill="none" stroke="#6e5c3d" stroke-width="3.6" opacity="0.09"/>
<path d="M 940 660 C 966 672, 1000 692, 1032 714 C 1060 733, 1080 750, 1088 764
  C 1094 776, 1086 784, 1068 776 C 1036 762, 1000 738, 972 714 C 952 696, 936 676, 940 660 Z" fill="none" stroke="#6e5c3d" stroke-width="1.5" opacity="0.5"/>
<path d="M 606 400 C 622 394, 640 396, 648 404 C 654 411, 644 418, 628 419 C 614 420, 598 412, 606 400 Z" fill="url(#paperGrad)" stroke="#6e5c3d" stroke-width="1.3" opacity="0.9"/>
<path d="M 316 372 C 331 364, 366 364, 378 372 C 366 379, 330 380, 316 372 Z" fill="url(#paperGrad)" stroke="#6e5c3d" stroke-width="1.3" opacity="0.9"/>
<circle cx="392" cy="356" r="4.5" fill="none" stroke="#6e5c3d" stroke-width="1.2" opacity="0.7"/>
<circle cx="344" cy="300" r="2.6" fill="#6e5c3d" opacity="0.45"/>
<circle cx="352" cy="318" r="2.3" fill="#6e5c3d" opacity="0.45"/>
<circle cx="332" cy="316" r="2.2" fill="#6e5c3d" opacity="0.45"/>
<circle cx="356" cy="284" r="2" fill="#6e5c3d" opacity="0.45"/>
<path d="M 348 282 C 360 270, 372 258, 386 246" fill="none" stroke="#7c9aa4" stroke-width="1.6" opacity="0.5"/>
<path d="M 653 528 C 649 580, 645 630, 649 680 C 652 720, 647 758, 639 795" fill="none" stroke="#7c9aa4" stroke-width="1.6" opacity="0.55" stroke-linecap="round"/>
<path d="M 647 530 C 642 521, 636 515, 629 511" fill="none" stroke="#7c9aa4" stroke-width="1.6" opacity="0.55" stroke-linecap="round"/>
<path d="M 660 530 C 665 521, 672 515, 679 512" fill="none" stroke="#7c9aa4" stroke-width="1.6" opacity="0.55" stroke-linecap="round"/>
<path d="M 776 306 C 796 332, 822 360, 845 396 C 870 434, 892 472, 907 514 C 919 548, 931 596, 941 658" fill="none" stroke="#7c9aa4" stroke-width="1.6" opacity="0.55" stroke-linecap="round"/>
<path d="M 812 302 C 833 332, 854 366, 872 406 C 890 446, 904 488, 914 530 C 922 566, 931 610, 941 660" fill="none" stroke="#7c9aa4" stroke-width="1.6" opacity="0.55" stroke-linecap="round"/>
<text x="400" y="448" font-size="17" fill="#7c8f96" font-style="italic" letter-spacing="3" opacity="0.85">Великое море</text>
<text x="748" y="682" font-size="12" fill="#7c8f96" font-style="italic" letter-spacing="1.5" opacity="0.8" transform="rotate(60 748 682)">Чермное море</text>
<text x="662" y="662" font-size="11.5" fill="#7c9aa4" font-style="italic" opacity="0.8" transform="rotate(87 662 662)">Нил</text>
<text x="834" y="380" font-size="11.5" fill="#7c9aa4" font-style="italic" opacity="0.8" transform="rotate(52 834 380)">Евфрат</text>
<text x="886" y="442" font-size="11.5" fill="#7c9aa4" font-style="italic" opacity="0.8" transform="rotate(62 886 442)">Тигр</text>
<text x="240" y="130" text-anchor="middle" font-size="30" fill="#3f8a9a" font-weight="bold" letter-spacing="7" opacity="0.6">ИАФЕТ</text>
<text x="415" y="706" text-anchor="middle" font-size="30" fill="#a0533f" font-weight="bold" letter-spacing="7" opacity="0.6">ХАМ</text>
<text x="806" y="630" text-anchor="middle" font-size="30" fill="#c19a41" font-weight="bold" letter-spacing="7" opacity="0.6">СИМ</text>
<circle cx="513" cy="92" r="2.6" fill="none" stroke="#3f8a9a" stroke-width="1.2" opacity="0.85"/>
<text x="520" y="96" font-size="12.5" fill="#3f8a9a" font-weight="600" opacity="0.95">Гомер</text>
<circle cx="643" cy="76" r="2.6" fill="none" stroke="#3f8a9a" stroke-width="1.2" opacity="0.85"/>
<text x="650" y="80" font-size="12.5" fill="#3f8a9a" font-weight="600" opacity="0.95">Аскеназ</text>
<circle cx="753" cy="96" r="2.6" fill="none" stroke="#3f8a9a" stroke-width="1.2" opacity="0.85"/>
<text x="760" y="100" font-size="12.5" fill="#3f8a9a" font-weight="600" opacity="0.95">Магог (?)</text>
<circle cx="645" cy="314" r="2.6" fill="none" stroke="#3f8a9a" stroke-width="1.2" opacity="0.85"/>
<text x="652" y="318" font-size="12.5" fill="#3f8a9a" font-weight="600" opacity="0.95">Фогарма</text>
<circle cx="541" cy="314" r="2.6" fill="none" stroke="#3f8a9a" stroke-width="1.2" opacity="0.85"/>
<text x="548" y="318" font-size="12.5" fill="#3f8a9a" font-weight="600" opacity="0.95">Фувал</text>
<circle cx="451" cy="318" r="2.6" fill="none" stroke="#3f8a9a" stroke-width="1.2" opacity="0.85"/>
<text x="458" y="322" font-size="12.5" fill="#3f8a9a" font-weight="600" opacity="0.95">Мешех</text>
<circle cx="301" cy="196" r="2.6" fill="none" stroke="#3f8a9a" stroke-width="1.2" opacity="0.85"/>
<text x="308" y="200" font-size="12.5" fill="#3f8a9a" font-weight="600" opacity="0.95">Фирас (?)</text>
<circle cx="239" cy="314" r="2.6" fill="none" stroke="#3f8a9a" stroke-width="1.2" opacity="0.85"/>
<text x="246" y="318" font-size="12.5" fill="#3f8a9a" font-weight="600" opacity="0.95">Иаван</text>
<circle cx="397" cy="350" r="2.6" fill="none" stroke="#3f8a9a" stroke-width="1.2" opacity="0.85"/>
<text x="404" y="354" font-size="12.5" fill="#3f8a9a" font-weight="600" opacity="0.95">Доданим</text>
<circle cx="611" cy="386" r="2.6" fill="none" stroke="#3f8a9a" stroke-width="1.2" opacity="0.85"/>
<text x="618" y="390" font-size="12.5" fill="#3f8a9a" font-weight="600" opacity="0.95">Елиса</text>
<circle cx="623" cy="430" r="2.6" fill="none" stroke="#3f8a9a" stroke-width="1.2" opacity="0.85"/>
<text x="630" y="434" font-size="12.5" fill="#3f8a9a" font-weight="600" opacity="0.95">Киттим</text>
<circle cx="998" cy="301" r="2.6" fill="none" stroke="#3f8a9a" stroke-width="1.2" opacity="0.85"/>
<text x="1005" y="305" font-size="12.5" fill="#3f8a9a" font-weight="600" opacity="0.95">Мадай</text>
<circle cx="567" cy="614" r="2.6" fill="none" stroke="#a0533f" stroke-width="1.2" opacity="0.85"/>
<text x="574" y="618" font-size="12.5" fill="#a0533f" font-weight="600" opacity="0.95">Мицраим</text>
<circle cx="303" cy="604" r="2.6" fill="none" stroke="#a0533f" stroke-width="1.2" opacity="0.85"/>
<text x="310" y="608" font-size="12.5" fill="#a0533f" font-weight="600" opacity="0.95">Фут</text>
<circle cx="659" cy="776" r="2.6" fill="none" stroke="#a0533f" stroke-width="1.2" opacity="0.85"/>
<text x="666" y="780" font-size="12.5" fill="#a0533f" font-weight="600" opacity="0.95">Куш</text>
<circle cx="723" cy="442" r="2.6" fill="none" stroke="#a0533f" stroke-width="1.2" opacity="0.85"/>
<text x="730" y="446" font-size="12.5" fill="#a0533f" font-weight="600" opacity="0.95">Ханаан</text>
<circle cx="715" cy="394" r="2.6" fill="none" stroke="#a0533f" stroke-width="1.2" opacity="0.85"/>
<text x="722" y="398" font-size="12.5" fill="#a0533f" font-weight="600" opacity="0.95">Сидон</text>
<circle cx="699" cy="516" r="2.6" fill="none" stroke="#a0533f" stroke-width="1.2" opacity="0.85"/>
<text x="706" y="520" font-size="12.5" fill="#a0533f" font-weight="600" opacity="0.95">Филистимляне</text>
<circle cx="337" cy="392" r="2.6" fill="none" stroke="#a0533f" stroke-width="1.2" opacity="0.85"/>
<text x="344" y="396" font-size="12.5" fill="#a0533f" font-weight="600" opacity="0.95">Кафторим</text>
<circle cx="781" cy="328" r="2.6" fill="none" stroke="#c19a41" stroke-width="1.2" opacity="0.85"/>
<text x="788" y="332" font-size="12.5" fill="#c19a41" font-weight="600" opacity="0.95">Арам</text>
<circle cx="855" cy="342" r="2.6" fill="none" stroke="#c19a41" stroke-width="1.2" opacity="0.85"/>
<text x="862" y="346" font-size="12.5" fill="#c19a41" font-weight="600" opacity="0.95">Ассур</text>
<circle cx="1001" cy="570" r="2.6" fill="none" stroke="#c19a41" stroke-width="1.2" opacity="0.85"/>
<text x="1008" y="574" font-size="12.5" fill="#c19a41" font-weight="600" opacity="0.95">Елам</text>
<circle cx="845" cy="420" r="2.6" fill="none" stroke="#c19a41" stroke-width="1.2" opacity="0.85"/>
<text x="852" y="424" font-size="12.5" fill="#c19a41" font-weight="600" opacity="0.95">Арфаксад (?)</text>
<circle cx="405" cy="318" r="2.6" fill="none" stroke="#c19a41" stroke-width="1.2" opacity="0.85"/>
<text x="412" y="322" font-size="12.5" fill="#c19a41" font-weight="600" opacity="0.95">Луд</text>
<circle cx="859" cy="744" r="2.6" fill="none" stroke="#c19a41" stroke-width="1.2" opacity="0.85"/>
<text x="866" y="748" font-size="12.5" fill="#c19a41" font-weight="600" opacity="0.95">Иоктан</text>
<circle cx="825" cy="796" r="2.6" fill="none" stroke="#c19a41" stroke-width="1.2" opacity="0.85"/>
<text x="832" y="800" font-size="12.5" fill="#c19a41" font-weight="600" opacity="0.95">Шева</text>
<circle cx="957" cy="796" r="2.6" fill="none" stroke="#c19a41" stroke-width="1.2" opacity="0.85"/>
<text x="964" y="800" font-size="12.5" fill="#c19a41" font-weight="600" opacity="0.95">Офир (?)</text>
<use href="#ic-mountain" x="762.0" y="226.0" width="26" height="26" color="#b8933f" opacity="0.95"/>
<text x="798" y="244" font-size="13" fill="#b8933f" font-weight="bold">Арарат</text>
<text x="798" y="258" font-size="9.5" fill="#9c8862" font-style="italic">исход расселения · Быт 8:4</text>
<circle cx="898" cy="496" r="4" fill="#a0533f"/>
<circle cx="898" cy="496" r="7.5" fill="none" stroke="#a0533f" stroke-width="1" opacity="0.5"/>
<text x="910" y="493" font-size="13" fill="#a0533f" font-weight="bold">Вавилон</text>
<text x="910" y="507" font-size="9.5" fill="#9c8862" font-style="italic">Нимрод · Быт 10:10 · 11:1–9</text>
<line x1="248" y1="428" x2="96" y2="428" stroke="#3f8a9a" stroke-width="1.4" stroke-dasharray="3 5" opacity="0.75"/>
<path d="M 104 422 L 92 428 L 104 434" fill="none" stroke="#3f8a9a" stroke-width="1.4" opacity="0.75"/>
<text x="130" y="420" font-size="12" fill="#3f8a9a" font-weight="600">Фарсис (?)</text>
<text x="130" y="444" font-size="9.5" fill="#9c8862" font-style="italic">далёкий запад · Тартесс?</text>
</g>
</g>
<rect x="40" y="130" width="1200" height="860" rx="10" fill="none" stroke="url(#goldGrad)" stroke-width="1.8"/>
<rect x="46" y="136" width="1188" height="848" rx="7" fill="none" stroke="#b8933f" stroke-width="0.7" opacity="0.45"/>
<g stroke="#b8933f" fill="none" opacity="0.85">
    <circle cx="1148" cy="216" r="26" stroke-width="0.8" opacity="0.5"/>
    <circle cx="1148" cy="216" r="3" fill="url(#goldGrad)" stroke="none"/>
    <path d="M 1148 182 L 1154 208 L 1148 214 L 1142 208 Z" fill="url(#goldGrad)" stroke="none"/>
    <path d="M 1148 250 L 1154 224 L 1148 218 L 1142 224 Z" fill="#b8933f" fill-opacity="0.45" stroke="none"/>
    <path d="M 1114 216 L 1140 210 L 1146 216 L 1140 222 Z" fill="#b8933f" fill-opacity="0.45" stroke="none"/>
    <path d="M 1182 216 L 1156 210 L 1150 216 L 1156 222 Z" fill="#b8933f" fill-opacity="0.45" stroke="none"/></g>
<text x="1148" y="176" text-anchor="middle" font-size="11" fill="#6e5c3d" font-weight="bold">С</text>
<g filter="url(#cardShadow)"><rect x="62" y="902" width="330" height="66" rx="10" fill="url(#cardGrad)" stroke="#c8a961" stroke-width="1" opacity="0.97"/></g>
<circle cx="78" cy="918" r="4.5" fill="#3f8a9a"/>
<text x="89" y="922" font-size="11.5" fill="#6e5c3d">Иафет · север/острова</text>
<circle cx="78" cy="935" r="4.5" fill="#a0533f"/>
<text x="89" y="939" font-size="11.5" fill="#6e5c3d">Хам · юг/Африка</text>
<circle cx="78" cy="952" r="4.5" fill="#c19a41"/>
<text x="89" y="956" font-size="11.5" fill="#6e5c3d">Сим · восток/Аравия</text>
<text x="1224" y="1024" text-anchor="end" font-size="11.5" fill="#9c8862" font-style="italic">Стилизованная схема направлений по традиционным отождествлениям — не точная историческая карта. Спорное — «(?)».</text>
<text x="56" y="1024" font-size="11.5" fill="#9c8862">«От сих населились острова народов в землях их…» — Быт 10:5</text>
</svg>