<svg xmlns="http://www.w3.org/2000/svg" width="1200" height="630" viewBox="0 0 1200 630" role="img" aria-label="Тайны человеческого сердца · Справочник — библейская карта сердца">
  <defs>
    <linearGradient id="leather" x1="0" y1="0" x2="1" y2="1">
      <stop offset="0" stop-color="#3a2416"/>
      <stop offset="0.5" stop-color="#28180d"/>
      <stop offset="1" stop-color="#160c06"/>
    </linearGradient>
    <radialGradient id="glow" cx="76%" cy="22%" r="60%">
      <stop offset="0" stop-color="#e9c98a" stop-opacity="0.22"/>
      <stop offset="1" stop-color="#e9c98a" stop-opacity="0"/>
    </radialGradient>
    <radialGradient id="vign" cx="50%" cy="48%" r="72%">
      <stop offset="0.55" stop-color="#000000" stop-opacity="0"/>
      <stop offset="1" stop-color="#000000" stop-opacity="0.42"/>
    </radialGradient>
    <linearGradient id="gold" x1="0" y1="0" x2="0" y2="1">
      <stop offset="0" stop-color="#f2d89e"/>
      <stop offset="1" stop-color="#bf9550"/>
    </linearGradient>
  </defs>

  <rect width="1200" height="630" fill="url(#leather)"/>
  <rect width="1200" height="630" fill="url(#glow)"/>

  <g opacity="0.13" transform="translate(842 128) scale(2.95)">
    <path d="M50 88 C 12 60, 0 40, 0 24 C 0 8, 14 0, 28 0 C 40 0, 47 8, 50 16 C 53 8, 60 0, 72 0 C 86 0, 100 8, 100 24 C 100 40, 88 60, 50 88 Z" fill="url(#gold)"/>
  </g>
  <g stroke="#e9c98a" stroke-opacity="0.22" stroke-width="3" stroke-linecap="round">
    <path d="M872 300 H1052 M872 330 H1092 M872 360 H1020 M872 390 H1080 M872 420 H1000"/>
  </g>

  <rect x="40" y="40" width="1120" height="550" fill="none" stroke="url(#gold)" stroke-opacity="0.55" stroke-width="2"/>
  <rect x="52" y="52" width="1096" height="526" fill="none" stroke="url(#gold)" stroke-opacity="0.28" stroke-width="1"/>

  <text x="90" y="128" fill="#e9c98a" font-family="Georgia, 'Times New Roman', serif" font-size="30" letter-spacing="7">ТАЙНЫ ЧЕЛОВЕЧЕСКОГО СЕРДЦА</text>
  <rect x="92" y="150" width="132" height="3" fill="url(#gold)"/>

  <text x="86" y="380" fill="#fbf3e4" font-family="Georgia, 'Times New Roman', serif" font-size="150" font-weight="700">Справочник</text>

  <text x="90" y="470" fill="#f4e6cc" font-family="Georgia, serif" font-size="36" opacity="0.85">Библейская карта сердца · индекс · словарь · цитаты</text>
  <text x="90" y="536" fill="#e9c98a" font-family="Georgia, serif" font-size="27" font-style="italic" opacity="0.72">тексты · оригинал · выводы — без воды</text>

  <rect width="1200" height="630" fill="url(#vign)"/>
</svg>
